<svg xmlns="http://www.w3.org/2000/svg" xmlns:xlink="http://www.w3.org/1999/xlink" width="500" zoomAndPan="magnify" viewBox="0 0 375 374.999991" height="500" preserveAspectRatio="xMidYMid meet" version="1.0"><defs><g/><clipPath id="e2da3d7519"><path d="M 74.464844 160.777344 L 300.207031 160.777344 L 300.207031 214.027344 L 74.464844 214.027344 Z M 74.464844 160.777344 " clip-rule="nonzero"/></clipPath><clipPath id="06afefab6b"><path d="M 81.882812 166.421875 L 205.65625 166.421875 L 205.65625 208.578125 L 81.882812 208.578125 Z M 81.882812 166.421875 " clip-rule="nonzero"/></clipPath></defs><g clip-path="url(#e2da3d7519)"><path stroke-linecap="butt" transform="matrix(0.75, 0, 0, 0.75, 74.465882, 160.778061)" fill="none" stroke-linejoin="miter" d="M -0.00138435 -0.000955856 L 301.415321 -0.000955856 L 301.415321 71.249053 L -0.00138435 71.249053 Z M -0.00138435 -0.000955856 " stroke="#000000" stroke-width="6" stroke-opacity="1" stroke-miterlimit="4"/></g><g clip-path="url(#06afefab6b)"><path fill="#000000" d="M 81.882812 166.421875 L 205.707031 166.421875 L 205.707031 208.578125 L 81.882812 208.578125 Z M 81.882812 166.421875 " fill-opacity="1" fill-rule="nonzero"/></g><g fill="#ffffff" fill-opacity="1"><g transform="translate(84.953993, 193.125002)"><g><path d="M 1.742188 0 L 3.246094 0 L 3.246094 -5.039062 L 8.148438 -5.039062 L 8.148438 -6.425781 L 3.246094 -6.425781 L 3.246094 -10.558594 L 8.59375 -10.558594 L 8.59375 -11.960938 L 1.742188 -11.960938 Z M 1.742188 0 "/></g></g></g><g fill="#ffffff" fill-opacity="1"><g transform="translate(95.780236, 193.125002)"><g><path d="M 1.742188 0 L 9.191406 0 L 9.191406 -1.402344 L 3.246094 -1.402344 L 3.246094 -5.398438 L 8.578125 -5.398438 L 8.578125 -6.78125 L 3.246094 -6.78125 L 3.246094 -10.558594 L 9.003906 -10.558594 L 9.003906 -11.960938 L 1.742188 -11.960938 Z M 1.742188 0 "/></g></g></g><g fill="#ffffff" fill-opacity="1"><g transform="translate(107.374811, 193.125002)"><g><path d="M 1.742188 0 L 9.054688 0 L 9.054688 -1.433594 L 3.246094 -1.433594 L 3.246094 -11.960938 L 1.742188 -11.960938 Z M 1.742188 0 "/></g></g></g><g fill="#ffffff" fill-opacity="1"><g transform="translate(118.252267, 193.125002)"><g><path d="M 1.742188 0 L 3.246094 0 L 3.246094 -11.960938 L 1.742188 -11.960938 Z M 1.742188 0 "/></g></g></g><g fill="#ffffff" fill-opacity="1"><g transform="translate(124.536761, 193.125002)"><g><path d="M 0.90625 0 L 9.429688 0 L 9.429688 -1.433594 L 2.90625 -1.433594 L 9.261719 -10.847656 L 9.261719 -11.960938 L 1.078125 -11.960938 L 1.078125 -10.523438 L 7.261719 -10.523438 L 0.90625 -1.109375 Z M 0.90625 0 "/></g></g></g><g fill="#ffffff" fill-opacity="1"><g transform="translate(136.148413, 193.125002)"><g><path d="M 9.585938 0 L 11.089844 0 L 11.089844 -11.960938 L 9.585938 -11.960938 L 9.585938 -6.816406 L 3.246094 -6.816406 L 3.246094 -11.960938 L 1.742188 -11.960938 L 1.742188 0 L 3.246094 0 L 3.246094 -5.382812 L 9.585938 -5.382812 Z M 9.585938 0 "/></g></g></g><g fill="#ffffff" fill-opacity="1"><g transform="translate(150.269981, 193.125002)"><g><path d="M 1.742188 0 L 3.246094 0 L 3.246094 -11.960938 L 1.742188 -11.960938 Z M 1.742188 0 "/></g></g></g><g fill="#ffffff" fill-opacity="1"><g transform="translate(156.554475, 193.125002)"><g><path d="M 1.742188 0 L 9.191406 0 L 9.191406 -1.402344 L 3.246094 -1.402344 L 3.246094 -5.398438 L 8.578125 -5.398438 L 8.578125 -6.78125 L 3.246094 -6.78125 L 3.246094 -10.558594 L 9.003906 -10.558594 L 9.003906 -11.960938 L 1.742188 -11.960938 Z M 1.742188 0 "/></g></g></g><g fill="#ffffff" fill-opacity="1"><g transform="translate(168.14905, 193.125002)"><g><path d="M 1.742188 0 L 9.054688 0 L 9.054688 -1.433594 L 3.246094 -1.433594 L 3.246094 -11.960938 L 1.742188 -11.960938 Z M 1.742188 0 "/></g></g></g><g fill="#ffffff" fill-opacity="1"><g transform="translate(179.026504, 193.125002)"><g><path d="M 1.742188 0 L 9.191406 0 L 9.191406 -1.402344 L 3.246094 -1.402344 L 3.246094 -5.398438 L 8.578125 -5.398438 L 8.578125 -6.78125 L 3.246094 -6.78125 L 3.246094 -10.558594 L 9.003906 -10.558594 L 9.003906 -11.960938 L 1.742188 -11.960938 Z M 1.742188 0 "/></g></g></g><g fill="#ffffff" fill-opacity="1"><g transform="translate(190.621085, 193.125002)"><g><path d="M 1.742188 0 L 3.246094 0 L 3.246094 -4.289062 L 5.878906 -4.289062 L 8.796875 0 L 10.609375 0 L 7.601562 -4.441406 C 9.34375 -4.871094 10.421875 -6.183594 10.421875 -8.117188 C 10.421875 -10.488281 8.78125 -11.960938 6.304688 -11.960938 L 1.742188 -11.960938 Z M 3.246094 -5.722656 L 3.246094 -10.523438 L 6.132812 -10.523438 C 7.875 -10.523438 8.882812 -9.636719 8.882812 -8.117188 C 8.882812 -6.59375 7.875 -5.722656 6.132812 -5.722656 Z M 3.246094 -5.722656 "/></g></g></g><g fill="#000000" fill-opacity="1"><g transform="translate(210.668458, 193.124987)"><g><path d="M 1.339844 0 L 4.953125 0 L 4.953125 -6.417969 L 7.394531 -3 L 9.765625 -3 L 12.1875 -6.402344 L 12.1875 0 L 15.804688 0 L 15.804688 -12.65625 L 12.839844 -12.65625 L 8.570312 -6.636719 L 4.320312 -12.65625 L 1.339844 -12.65625 Z M 1.339844 0 "/></g></g></g><g fill="#000000" fill-opacity="1"><g transform="translate(227.810219, 193.124987)"><g><path d="M 6.78125 0.269531 C 10.199219 0.269531 12.3125 -1.808594 12.3125 -5.207031 L 12.3125 -12.65625 L 8.679688 -12.65625 L 8.679688 -5.441406 C 8.679688 -3.941406 8.046875 -3.144531 6.78125 -3.144531 C 5.515625 -3.144531 4.882812 -3.941406 4.882812 -5.441406 L 4.882812 -12.65625 L 1.230469 -12.65625 L 1.230469 -5.207031 C 1.230469 -1.808594 3.363281 0.269531 6.78125 0.269531 Z M 6.78125 0.269531 "/></g></g></g><g fill="#000000" fill-opacity="1"><g transform="translate(241.37173, 193.124987)"><g><path d="M 1.339844 0 L 4.953125 0 L 4.953125 -6.457031 L 9.765625 0 L 12.730469 0 L 12.730469 -12.65625 L 9.132812 -12.65625 L 9.132812 -6.238281 L 4.320312 -12.65625 L 1.339844 -12.65625 Z M 1.339844 0 "/></g></g></g><g fill="#000000" fill-opacity="1"><g transform="translate(255.45762, 193.124987)"><g><path d="M 1.339844 0 L 10.214844 0 L 10.214844 -2.984375 L 4.953125 -2.984375 L 4.953125 -4.9375 L 9.53125 -4.9375 L 9.53125 -7.867188 L 4.953125 -7.867188 L 4.953125 -9.710938 L 10.019531 -9.710938 L 10.019531 -12.65625 L 1.339844 -12.65625 Z M 1.339844 0 "/></g></g></g><g fill="#000000" fill-opacity="1"><g transform="translate(266.487653, 193.124987)"><g><path d="M 1.339844 0 L 4.953125 0 L 4.953125 -6.457031 L 9.765625 0 L 12.730469 0 L 12.730469 -12.65625 L 9.132812 -12.65625 L 9.132812 -6.238281 L 4.320312 -12.65625 L 1.339844 -12.65625 Z M 1.339844 0 "/></g></g></g><g fill="#000000" fill-opacity="1"><g transform="translate(280.573544, 193.124987)"><g><path d="M 1.339844 0 L 10.214844 0 L 10.214844 -2.984375 L 4.953125 -2.984375 L 4.953125 -4.9375 L 9.53125 -4.9375 L 9.53125 -7.867188 L 4.953125 -7.867188 L 4.953125 -9.710938 L 10.019531 -9.710938 L 10.019531 -12.65625 L 1.339844 -12.65625 Z M 1.339844 0 "/></g></g></g></svg>